<svg xmlns="http://www.w3.org/2000/svg" xmlns:xlink="http://www.w3.org/1999/xlink"><defs><svg viewBox="0 0 93 132" id="avatar" xmlns="http://www.w3.org/2000/svg"><g fill="none" fill-rule="evenodd"><path fill="#FFF" d="M84.21 34.631h-2C78.742 14.878 64.05 0 46.503 0s-32.24 14.878-35.708 34.631h-2C3.942 34.631 0 38.606 0 43.495v13.9c0 4.882 3.948 8.864 8.796 8.864h6.86c3.973 7.114 9.837 12.613 16.928 15.74v1.942C21.234 88.154 4.702 99.07 4.702 112.72V129h3.404L8.1 112.713c0-11.121 14.219-21.014 24.478-25.162v1.614c0 7.732 6.247 14.016 13.919 14.016 7.678 0 13.925-6.29 13.925-14.016v-1.614C70.681 91.7 84.9 101.592 84.9 112.713v16.28h3.405v-16.28c0-13.643-16.531-24.558-27.883-28.778v-1.943c7.09-3.126 12.954-8.626 16.922-15.74h6.86c4.855 0 8.796-3.975 8.796-8.863v-13.9c.006-4.883-3.941-8.858-8.79-8.858zM46.502 3.428c15.6 0 28.7 13.174 32.17 30.838-7.545-.888-11.697-5.32-13.287-14.074a1.704 1.704 0 0 0-1.284-1.358 1.693 1.693 0 0 0-1.75.644c-3.041 4.078-7.832 5.82-16.034 5.82-5.972 0-12.015-.655-15.745-5.434a1.677 1.677 0 0 0-1.732-.605 1.711 1.711 0 0 0-1.277 1.325c-1.718 8.49-5.851 12.8-13.229 13.682 3.469-17.664 16.57-30.838 32.169-30.838zM8.795 62.824c-2.977 0-5.391-2.438-5.391-5.43v-13.9c0-2.997 2.42-5.428 5.39-5.428h1.528a52.628 52.628 0 0 0-.307 5.532c0 7.036 1.405 13.546 3.928 19.226H8.795zm48.22 26.34c0 5.84-4.72 10.587-10.52 10.587S35.98 95.004 35.98 89.164v-5.886a34.69 34.69 0 0 0 10.514 1.615 34.71 34.71 0 0 0 10.52-1.615v5.886zm-10.514-7.7c-18.856 0-33.081-16.28-33.081-37.866 0-1.982.121-3.93.351-5.835 8.445-.7 13.836-5.113 16.36-13.443 4.554 3.827 10.641 4.406 16.18 4.406 5.314 0 11.74-.592 16.46-4.709 2.427 8.523 7.85 13.039 16.454 13.74.23 1.904.351 3.853.351 5.834.007 21.593-14.219 37.873-33.076 37.873h.001zm43.097-24.076c0 2.998-2.42 5.43-5.39 5.43h-5.15c2.517-5.68 3.929-12.19 3.929-19.227 0-1.878-.109-3.725-.307-5.532h1.527c2.977 0 5.391 2.438 5.391 5.429v13.9z"/><path fill="#FFF" d="M46.497 69.748c-3.31 0-6.004-2.13-6.004-4.748H37c0 4.412 4.26 8 9.497 8C51.733 73 56 69.412 56 65h-3.493c-.007 2.618-2.7 4.748-6.01 4.748z"/><path fill="#50E3C2" d="M50.878 47.004h-8.756V40H21v17h21.122v-6.59h8.756V57H72V40H50.878v7.004zM38.705 53.6H24.416V43.4h14.289v10.2zm15.59-10.2h14.288v10.2H54.295V43.4z"/><path fill="#FFF" d="M68.2 105H24.8c-3.75 0-6.8 3.123-6.8 6.96V132h3.38v-20.04c0-1.928 1.53-3.5 3.42-3.5h43.4c1.885 0 3.42 1.566 3.42 3.5V132H75v-20.04c0-3.837-3.05-6.96-6.8-6.96z"/><path fill="#50E3C2" d="M42 124h9v-3h-9z"/></g></svg><svg viewBox="0 0 38 32" id="blueprint-placeholder" xmlns="http://www.w3.org/2000/svg"><g stroke="#FFF"><path d="M33.042 6.806v2.405l1.194.086-1.388 19.137L6.475 26.53l.005-.088H4.07l-.167 2.306L35.073 31l1.733-23.922z"/><path d="M31.968 25.194H1V1h30.968v24.194zM3.383 22.775h26.204V3.418H3.383v19.357z"/></g></svg><svg viewBox="0 0 52 56" id="icon-blueprintue" xmlns="http://www.w3.org/2000/svg"><path d="M51.4 42.3l-7.3-4.4V19.5a.6.6 0 0 0-.1-.4V19c0-.1-.1-.2-.1-.3a.1.1 0 0 0-.1-.1c-.1-.1-.1-.2-.2-.2a.1.1 0 0 0-.1-.1c-.1-.1-.2-.2-.3-.2L27.7 8.9V1.6a1.6 1.6 0 1 0-3.2 0v7.3L9 18.1c-.1.1-.2.1-.3.2l-.1.1c-.1.1-.1.2-.2.2a.1.1 0 0 1-.1.1.37.37 0 0 0-.1.3v.1a.6.6 0 0 1-.1.4v18.4L.8 42.3a1.63 1.63 0 0 0-.6 2.2 1.6 1.6 0 0 0 1.4.8 1.88 1.88 0 0 0 .8-.2l7.3-4.3L25.1 50c.1 0 .2.1.3.1a.1.1 0 0 1 .1.1c.1 0 .3.1.4.1a.6.6 0 0 0 .4-.1h.1c.1 0 .2-.1.3-.1l15.4-9.2 7.3 4.3a1.2 1.2 0 0 0 .8.2 1.6 1.6 0 0 0 1.4-.8c.8-.9.6-1.9-.2-2.3zm-26.8 3.4l-13-7.7V22.5l13 7.7zm1.6-18.4l-13.1-7.8 13.1-7.8 13.1 7.8zm14.6 10.6l-13 7.7V30.1l13-7.7z"/></svg><svg viewBox="0 0 18 18" id="icon-close" xmlns="http://www.w3.org/2000/svg"><path d="M11.256 9l6.346-6.345a1.41 1.41 0 0 0 0-1.964l-.293-.293a1.41 1.41 0 0 0-1.964 0L9 6.743 2.655.398a1.41 1.41 0 0 0-1.964 0L.398.691a1.41 1.41 0 0 0 0 1.964l6.345 6.344-6.345 6.346a1.41 1.41 0 0 0 0 1.964l.293.293a1.41 1.41 0 0 0 1.964 0l6.344-6.345 6.345 6.345a1.41 1.41 0 0 0 1.964 0l.293-.293a1.41 1.41 0 0 0 0-1.964L11.256 9z"/></svg><svg viewBox="0 0 17.14 32" id="icon-facebook" xmlns="http://www.w3.org/2000/svg"><path d="M5.09 32V18H0v-5.79h5.09V7.79c0-5 3-7.79 7.56-7.79a31.06 31.06 0 0 1 4.49.39v4.93h-2.53c-2.49 0-3.26 1.54-3.26 3.13v3.76h5.55L16 18h-4.65v14H5.09z"/></svg><svg viewBox="0 0 31 31" id="icon-github" xmlns="http://www.w3.org/2000/svg"><path d="M11.768 29.79c0-.367-.013-1.338-.02-2.627-4.19.933-5.073-2.07-5.073-2.07-.686-1.784-1.673-2.26-1.673-2.26-1.367-.958.104-.938.104-.938 1.511.11 2.306 1.592 2.306 1.592 1.344 2.36 3.525 1.679 4.384 1.283.137-.998.526-1.678.956-2.064-3.344-.39-6.86-1.715-6.86-7.633 0-1.685.587-3.063 1.55-4.143-.154-.39-.672-1.96.148-4.087 0 0 1.265-.415 4.141 1.583a14.093 14.093 0 0 1 3.771-.52 14.09 14.09 0 0 1 3.77.52c2.875-1.998 4.138-1.583 4.138-1.583.822 2.125.305 3.695.15 4.087.965 1.08 1.548 2.458 1.548 4.143 0 5.933-3.522 7.238-6.877 7.62.542.477 1.022 1.42 1.022 2.86 0 2.065-.02 3.73-.02 4.237 0 .413.273.893 1.037.742 5.98-2.045 10.29-7.83 10.29-14.65C30.56 7.353 23.818.44 15.5.44S.44 7.353.44 15.882c0 6.822 4.315 12.61 10.3 14.652.752.142 1.028-.335 1.028-.744z"/></svg><svg viewBox="0 0 512 512" id="icon-google" xmlns="http://www.w3.org/2000/svg"><path fill="#fbbb00" d="M113.47 309.408L95.648 375.94l-65.139 1.378C11.042 341.211 0 299.9 0 256c0-42.451 10.324-82.483 28.624-117.732h.014L86.63 148.9l25.404 57.644c-5.317 15.501-8.215 32.141-8.215 49.456.002 18.792 3.406 36.797 9.651 53.408z"/><path fill="#518ef8" d="M507.527 208.176C510.467 223.662 512 239.655 512 256c0 18.328-1.927 36.206-5.598 53.451-12.462 58.683-45.025 109.925-90.134 146.187l-.014-.014-73.044-3.727-10.338-64.535c29.932-17.554 53.324-45.025 65.646-77.911h-136.89V208.176h245.899z"/><path fill="#28b446" d="M416.253 455.624l.014.014C372.396 490.901 316.666 512 256 512c-97.491 0-182.252-54.491-225.491-134.681l82.961-67.91c21.619 57.698 77.278 98.771 142.53 98.771 28.047 0 54.323-7.582 76.87-20.818l83.383 68.262z"/><path fill="#f14336" d="M419.404 58.936l-82.933 67.896C313.136 112.246 285.552 103.82 256 103.82c-66.729 0-123.429 42.957-143.965 102.724l-83.397-68.276h-.014C71.23 56.123 157.06 0 256 0c62.115 0 119.068 22.126 163.404 58.936z"/></svg><svg viewBox="0 0 18 18" id="icon-search" xmlns="http://www.w3.org/2000/svg"><path d="M17.701 16.298l-3.23-3.207c2.522-3.229 2.257-7.828-.642-10.725A8.053 8.053 0 0 0 8.099 0c-2.17 0-4.205.84-5.732 2.366A8.043 8.043 0 0 0 0 8.093c0 2.167.841 4.202 2.367 5.727a8.053 8.053 0 0 0 5.731 2.366 8.004 8.004 0 0 0 4.979-1.725l3.208 3.251a.97.97 0 0 0 .708.288c.266 0 .51-.11.708-.288.399-.375.399-1.016 0-1.415zM14.25 8.25a5.95 5.95 0 0 1-1.761 4.239A5.99 5.99 0 0 1 8.25 14.25a5.986 5.986 0 0 1-4.239-1.761A5.99 5.99 0 0 1 2.25 8.25a5.95 5.95 0 0 1 1.761-4.239A5.99 5.99 0 0 1 8.25 2.25a5.95 5.95 0 0 1 4.239 1.761A5.955 5.955 0 0 1 14.25 8.25z"/></svg><svg viewBox="0 0 24 24" id="icon-theme-dark" xmlns="http://www.w3.org/2000/svg"><path d="M9.37 5.51A7.35 7.35 0 0 0 9.1 7.5c0 4.08 3.32 7.4 7.4 7.4.68 0 1.35-.09 1.99-.27A7.014 7.014 0 0 1 12 19c-3.86 0-7-3.14-7-7 0-2.93 1.81-5.45 4.37-6.49zM12 3a9 9 0 1 0 9 9c0-.46-.04-.92-.1-1.36a5.389 5.389 0 0 1-4.4 2.26 5.403 5.403 0 0 1-3.14-9.8c-.44-.06-.9-.1-1.36-.1z"/></svg><svg viewBox="0 0 24 24" id="icon-theme-light" xmlns="http://www.w3.org/2000/svg"><path d="M12 9c1.65 0 3 1.35 3 3s-1.35 3-3 3-3-1.35-3-3 1.35-3 3-3m0-2c-2.76 0-5 2.24-5 5s2.24 5 5 5 5-2.24 5-5-2.24-5-5-5zM2 13h2c.55 0 1-.45 1-1s-.45-1-1-1H2c-.55 0-1 .45-1 1s.45 1 1 1zm18 0h2c.55 0 1-.45 1-1s-.45-1-1-1h-2c-.55 0-1 .45-1 1s.45 1 1 1zM11 2v2c0 .55.45 1 1 1s1-.45 1-1V2c0-.55-.45-1-1-1s-1 .45-1 1zm0 18v2c0 .55.45 1 1 1s1-.45 1-1v-2c0-.55-.45-1-1-1s-1 .45-1 1zM5.99 4.58a.996.996 0 0 0-1.41 0 .996.996 0 0 0 0 1.41l1.06 1.06c.39.39 1.03.39 1.41 0s.39-1.03 0-1.41L5.99 4.58zm12.37 12.37a.996.996 0 0 0-1.41 0 .996.996 0 0 0 0 1.41l1.06 1.06c.39.39 1.03.39 1.41 0a.996.996 0 0 0 0-1.41l-1.06-1.06zm1.06-10.96a.996.996 0 0 0 0-1.41.996.996 0 0 0-1.41 0l-1.06 1.06c-.39.39-.39 1.03 0 1.41s1.03.39 1.41 0l1.06-1.06zM7.05 18.36a.996.996 0 0 0 0-1.41.996.996 0 0 0-1.41 0l-1.06 1.06c-.39.39-.39 1.03 0 1.41s1.03.39 1.41 0l1.06-1.06z"/></svg><svg viewBox="0 0 23 24" id="icon-twitch" xmlns="http://www.w3.org/2000/svg"><path d="M16 20.8h-4.8L8.8 24H5.6v-3.2H0V4.106L1.6 0h20.8v14.4L16 20.8zm4-7.2V2.4H3.2v15.2H8v3.2l3.2-3.2H16l4-4z"/><path d="M13.6 6.4H16v6.4h-2.4zm-4.8 0h2.4v6.4H8.8z"/></svg><svg viewBox="0 0 23 19" id="icon-twitter" xmlns="http://www.w3.org/2000/svg"><path d="M22.15 2.178a9.082 9.082 0 0 1-2.61.716A4.558 4.558 0 0 0 21.538.38a9.09 9.09 0 0 1-2.886 1.102 4.544 4.544 0 0 0-7.743 4.145A12.9 12.9 0 0 1 1.543.88a4.522 4.522 0 0 0-.615 2.285c0 1.576.802 2.967 2.021 3.782a4.526 4.526 0 0 1-2.058-.568v.057a4.547 4.547 0 0 0 3.645 4.456 4.551 4.551 0 0 1-2.052.077 4.549 4.549 0 0 0 4.245 3.156 9.117 9.117 0 0 1-5.644 1.945c-.367 0-.729-.021-1.084-.063a12.862 12.862 0 0 0 6.966 2.042c8.358 0 12.929-6.925 12.929-12.93 0-.197-.005-.393-.013-.587a9.231 9.231 0 0 0 2.267-2.353z"/></svg><svg viewBox="0 0 31 31" id="icon-unreal" xmlns="http://www.w3.org/2000/svg"><path d="M14.796 0c-1.37.077-2.542.276-3.738.638a15.49 15.49 0 0 0-8.177 5.844 15.64 15.64 0 0 0-2.305 4.803C.27 12.38.107 13.331.016 14.58c-.021.27-.021 1.575 0 1.86a15.556 15.556 0 0 0 4.52 10.032c.976.98 2.081 1.823 3.285 2.505a15.578 15.578 0 0 0 6.26 1.968c.435.04.597.047 1.245.053.682.006.965 0 1.4-.036 1.753-.14 3.47-.578 5.076-1.294a22.39 22.39 0 0 0 1.133-.56 15.623 15.623 0 0 0 2.589-1.77 16.729 16.729 0 0 0 1.816-1.817 15.596 15.596 0 0 0 3.31-6.73c.27-1.252.375-2.391.345-3.734-.046-1.978-.477-3.893-1.3-5.791a15.712 15.712 0 0 0-2.475-3.922c-.524-.6-1.09-1.162-1.696-1.68A15.571 15.571 0 0 0 16.898.052C16.443.008 16.316.004 15.596 0l-.8-.001zm1.724 1.982c1.828.144 3.474.594 5.065 1.39a13.468 13.468 0 0 1 7.06 8.829c.221.894.344 1.785.39 2.843.025.573-.02 1.41-.115 2.132a13.474 13.474 0 0 1-4.63 8.51 13.49 13.49 0 0 1-7.02 3.098c-.564.075-1.133.11-1.702.105-.414.005-.828-.013-1.24-.054a13.479 13.479 0 0 1-5.899-1.993 13.18 13.18 0 0 1-2.388-1.907 13.47 13.47 0 0 1 5.792-22.454c.99-.285 2.008-.456 3.036-.513a25.22 25.22 0 0 1 1.651.016v-.002z"/><path d="M13.389 5.646a1.059 1.059 0 0 1-.113.034c-.147.039-.408.118-.657.2a12.334 12.334 0 0 0-3.087 1.513c-1.296.87-2.587 2.046-4.034 3.67-.985 1.106-1.702 2.235-2.15 3.387-.41 1.053-.593 2.142-.51 3.02.006.068.015.142.02.164l.009.039.012-.03c.044-.11.267-.538.41-.79a16.327 16.327 0 0 1 2.282-3.08c.665-.715 1.196-1.146 1.71-1.398.325-.157.624-.227.857-.198.22.027.356.09.495.231a.746.746 0 0 1 .199.332l.025.084.004 3.687c.002 2.407 0 3.726-.008 3.799a.875.875 0 0 1-.09.336c-.138.29-.462.429-.915.39a2.878 2.878 0 0 1-.51-.101c-.044-.014-.068-.017-.063-.01l.063.092c.314.437.811.932 1.325 1.315 1.36 1.017 3.398 1.767 5.576 2.057l.269.035.062-.066.352-.374c.456-.482.533-.566 1.195-1.267.342-.363.628-.662.634-.662.005 0 .14.108.297.241l1.162.981.634.538c.015.01.046-.005.174-.084.63-.388 1.224-.833 1.774-1.327.228-.202.871-.847 1.084-1.09a16.7 16.7 0 0 0 1.68-2.227c.304-.479.655-1.109.816-1.459l.052-.112-.312.31c-.592.585-1.029.954-1.514 1.269-.805.527-1.475.697-1.981.501a.909.909 0 0 1-.305-.197l-.05-.056-.008-.128c-.023-.383-.044-1.216-.07-2.732-.024-1.354-.028-4.645-.006-5.208.018-.487.033-.748.053-.889.015-.113.017-.118.11-.274.242-.413.546-.858 1.005-1.467a50.697 50.697 0 0 1 1.628-2.037c.017-.02.016-.022-.032-.014-.246.037-.88.203-1.297.34-1.68.55-3.324 1.558-4.458 2.734l-.168.175-.054-.039c-.323-.229-.965-.373-1.618-.362l-.214.003.074.047c.23.147.475.4.67.696.192.289.329.61.404.949l.031.138.002 3.956.004 3.956-.144.113c-.651.517-1.299.865-1.815.976-.473.101-.915-.004-1.268-.305a1.713 1.713 0 0 1-.381-.496l-.04-.08v-4.743c0-2.608-.004-4.74-.008-4.738-.23.117-.315.144-.465.144a.528.528 0 0 1-.416-.178c-.128-.131-.204-.28-.27-.54-.05-.195-.067-.347-.073-.662-.007-.331.006-.468.068-.71.09-.339.24-.66.442-.946a5.084 5.084 0 0 1 1.333-1.285c.068-.043.128-.087.134-.092.015-.012-.004-.011-.026.001z"/><path d="M25.145 7.603c-.088.104-.195.19-.314.252-.23.124-.462.166-.946.172-.174.002-.204.004-.22.022-.01.01-.454.683-.986 1.494l-.969 1.472-.051.428c-.03.235-.053.432-.053.436 0 .005.474.01 1.052.01h1.054l-.007.038c-.009.06-.14 1.18-.14 1.205 0 .025.034.02.596.018l.597-.004.012-.101c.008-.056.015-.12.015-.14v-.037h-.105c-.077 0-.106-.004-.106-.016s.018-.156.04-.33l.057-.474.018-.158h.576l.019-.176c.058-.527.075-.665.08-.68.004-.014-.057-.014-.28-.014-.097.004-.193 0-.29-.01-.003-.004.02-.2.05-.437l.094-.733c.02-.167.096-.756.168-1.31.071-.555.128-1.01.126-1.015a.505.505 0 0 0-.087.088zM23.969 9.53l-.09.81c-.017.166-.043.387-.053.489l-.02.185-.535.003c-.451.003-.535 0-.531-.014.003-.014 1.277-1.989 1.282-1.982.005.006-.022.231-.053.509z"/></svg><svg viewBox="0 0 122 86" id="icon-youtube" xmlns="http://www.w3.org/2000/svg"><path fill="red" d="M119 13.28a15.23 15.23 0 0 0-10.79-10.74C98.73 0 60.74 0 60.74 0s-38 0-47.46 2.54A15.21 15.21 0 0 0 2.54 13.28C0 22.75 0 42.52 0 42.52s0 19.77 2.54 29.24A15.21 15.21 0 0 0 13.28 82.5C22.75 85 60.74 85 60.74 85s38 0 47.47-2.54A15.23 15.23 0 0 0 119 71.76c2.53-9.47 2.53-29.24 2.53-29.24s-.05-19.77-2.53-29.24z"/><path fill="#fff" d="M48.59 60.74l31.57-18.22L48.59 24.3v36.44z"/></svg></defs></svg>